<svg xmlns="http://www.w3.org/2000/svg" width="702.7" height="632" version="1.0" viewBox="0 0 527 474">
    <path
        d="M415.2 90.7A5 5 0 0 0 412 93c-.7 1.3-2.3 2-5.3 2.2-3.2.2-4.4.8-5.2 2.5-.9 2.2-3.2 3.3-7.3 3.3-1.4 0-2.7.9-3.4 2.5-.6 1.4-1.9 2.5-2.9 2.5-1.1 0-2.1 1-2.5 2.5-.4 1.6-1.3 2.5-2.5 2.5s-2.3 1-2.9 2.5c-.5 1.4-1.6 2.5-2.5 2.5-.9 0-2 1.1-2.5 2.4-.5 1.3-1.7 2.7-2.8 3a7 7 0 0 0-3 3.1c-.6 1.4-1.9 2.5-2.7 2.5-.9 0-2 1.1-2.5 2.5-.6 1.5-1.7 2.5-2.9 2.5-1.3 0-2.1.8-2.3 2.2-.2 1.5-1.1 2.4-2.5 2.6a3.5 3.5 0 0 0-2.9 2.7 4 4 0 0 1-3 2.9c-1.5.4-2.4 1.4-2.4 2.6 0 1.2-1 2.4-2.4 2.9a5.3 5.3 0 0 0-2.9 3c-.3 1.2-1.3 2.1-2.5 2.1-1.3 0-2.2.9-2.6 2.5-.4 1.4-1.3 2.5-2.1 2.5-.9 0-2 1.1-2.6 2.4a8.4 8.4 0 0 1-3.5 3.5c-1.4.6-2.4 1.9-2.4 3.1 0 1.5-.7 2-2.4 2-1.8 0-2.5.6-2.8 2.2-.2 1.9-1.1 2.4-4.8 2.8-3.4.4-4.7 1-5.5 2.7-.5 1.2-2 2.4-3.2 2.8-1.4.3-2.3 1.3-2.3 2.4 0 1.2-.9 2.1-2.4 2.5-1.4.3-2.6 1.6-3 3.1-.4 1.6-1.3 2.5-2.6 2.5-1.2 0-2.2.9-2.6 2.4a3.4 3.4 0 0 1-2.7 2.8c-1.9.3-2.2 1-2.5 5.5-.3 4.4-.6 5.3-2.1 5.3-2.2 0-3.1 1.9-3.1 6.1 0 2.2-.6 3.2-2.4 3.8a5.2 5.2 0 0 0-2.9 3.1 4.1 4.1 0 0 1-2.6 2.7 4.2 4.2 0 0 0-2.7 2.9c-.4 1.7-1.3 2.4-3 2.4-1.9 0-2.4.5-2.4 2.5s-.5 2.5-2.4 2.5c-2.3 0-2.5.5-2.8 4.7-.2 3.9-.7 5-2.5 5.8-2.1.9-2.3 1.7-2.3 7.7 0 6.3-.2 6.8-2.7 8-1.6.7-2.9 2.3-3.1 3.6-.2 1.6-1 2.2-2.7 2.2-1.7 0-2.5.6-2.7 2.3a2.8 2.8 0 0 1-2.5 2.5c-2 .3-2.3.9-2.3 5.2 0 4.2-.3 5-2.2 5.6-3.1.9-3.8 2.2-3.8 6.6 0 3.4-.3 3.8-2.5 3.8-2 0-2.5.5-2.5 2.4 0 1.8-.6 2.5-2.2 2.8-1.4.2-2.4 1.1-2.6 2.4-.3 1.8-1.2 2.2-5.5 2.8-2.9.3-7.5.6-10.4.6-4.6 0-5.2.2-5.5 2.2-.2 1.5-1.1 2.4-2.5 2.6-2 .3-2.3.9-2.3 4.8 0 3.8.3 4.4 2.6 5 3.5.9 3.1 5.5-.6 6.4-1.6.4-2.6 1.4-2.8 2.8-.2 1.6-1 2.2-2.8 2.2-1.9 0-2.4.5-2.4 2.5s-.5 2.5-2.5 2.5-2.5.5-2.5 2.5c0 1.8-.5 2.5-2 2.5-1.2 0-2.4.9-2.8 2.1a7 7 0 0 1-3.2 3.2 5.6 5.6 0 0 0-2.8 3.5c-.2 1.6-1 2.2-2.8 2.2-1.9 0-2.4.5-2.4 2.5s-.5 2.5-2.5 2.5-2.5.5-2.5 2.4c0 1.8-.6 2.5-2.2 2.8-3.1.4-3.8 4.7-.9 5.5 2.6.7 2.7 3.9.2 4.6-1.5.3-2.1-.1-2.3-1.7-.5-3.2-4.6-3.4-5.4-.2a3.4 3.4 0 0 1-2.7 2.8 2.8 2.8 0 0 0-2.5 2.5c-.2 1.7-1 2.3-2.7 2.3-1.8 0-2.4.6-2.7 2.7-.2 2-.9 2.9-2.5 3.1a3.5 3.5 0 0 0-2.7 2.7 3.5 3.5 0 0 1-2.9 2.7 2.8 2.8 0 0 0-2.5 2.5c-.3 1.7-1 2.3-2.8 2.3-1.9 0-2.4.5-2.4 2.5 0 2.3-.3 2.4-7.7 2.7l-7.8.3-.3 5.2-.3 5.2-4.7.3-4.7.3-.3 9.7c-.3 9.4-.2 9.7 2 10 1.5.2 2.4 1.1 2.6 2.5.3 2.2.7 2.3 10.3 2.3h9.9v-12.9c0-12.8 0-12.8-2.3-12.4-2 .4-2.2 1-2.2 5.4 0 4.7-.1 4.9-2.8 4.9h-2.8l.3-7.8.3-7.7h5c4.5 0 5 .2 5.3 2.4.3 2 .8 2.2 3.4 1.7l4.3-.6c.7 0 1.6-1.9 1.9-4.4.5-3.3 1.3-4.7 2.7-5.1a5.9 5.9 0 0 0 2.9-3.1c.6-1.4 1.8-2.4 2.9-2.4 1.3 0 2.1-.8 2.3-2.2.2-1.4 1.2-2.4 2.8-2.8 1.6-.4 2.6-1.4 2.8-2.7a2.9 2.9 0 0 1 2.5-2.5 2.8 2.8 0 0 0 2.5-2.5 3.5 3.5 0 0 1 2.7-2.7 3.5 3.5 0 0 0 2.7-2.9 2.8 2.8 0 0 1 2.5-2.5c3.9-.6 4.1-5.2.2-5.2-1.4 0-1.9-.7-1.9-2.5 0-2 .5-2.5 2.5-2.5s2.5.5 2.5 2.5c0 3.1 3.5 3.5 4.3.6.6-2.4 0-3.1-2.5-3.1-1.3 0-1.8-.7-1.8-2.5 0-2 .5-2.5 2.5-2.5s2.5.5 2.5 2.6c0 2 .4 2.5 1.6 2 .9-.3 2-.6 2.5-.6s.9-.9.9-2c0-1.5-.7-2-2.5-2-2 0-2.5-.5-2.5-2.6 0-2.2.4-2.5 2.8-2.2 2 .2 2.6.8 2.4 2.1-.3 1.4.2 1.8 2 1.5 3-.4 3.8-3.8.9-3.8-1.2 0-2.1-.3-2.2-.8l-.5-3c-.3-1.9 0-2.2 2.6-2.2s3 .4 3 2.6c0 3.3 3.3 3 3.8-.4.3-1.7-.2-2.2-1.7-2.2-1.6 0-2.1-.6-2.1-2.5 0-2 .5-2.5 2.5-2.5s2.5.5 2.5 2.5c0 2.7 1.8 3.3 3.8 1.3 2-2 1.4-3.8-1.3-3.8-2 0-2.5-.5-2.5-2.5s.5-2.5 2.5-2.5c1.8 0 2.5.5 2.5 1.9 0 2.6 1.7 3.6 3.5 2.1 2.3-1.9 1.8-4-1-4-2 0-2.5-.5-2.5-2.5s.5-2.5 2.4-2.5c1.8 0 2.6.6 2.8 2.2.5 3.7 4.6 3.1 5.2-.8.2-1 1.4-2.1 2.7-2.4 1.4-.4 2.5-1.4 2.7-2.7a3.6 3.6 0 0 1 2.3-2.6 4 4 0 0 0 2.6-2.5c.4-1.8 1.7-2.1 10.5-2.7 9.2-.7 10-.9 10.8-3.1.5-1.3 1.6-2.4 2.5-2.4.9 0 2-1.1 2.5-2.5.6-1.5 1.7-2.5 3-2.5s2.2-.9 2.6-2.5c.4-1.8 1.3-2.5 2.9-2.5 3.8 0 7.2-1.7 7.8-3.9.4-1.7 1.3-2.1 4.6-2.1s4.3-.4 5.2-2.3a7 7 0 0 1 3.2-3.2c1.2-.6 2.2-1.7 2.2-2.5 0-1.2-1.4-1.4-7.7-1.1l-7.8.3v-5.6c0-5.3-.1-5.6-2.5-5.6-2 0-2.5.5-2.5 2.5s-.5 2.5-2.5 2.5c-2.4 0-2.5.3-2.5 5.5s-.1 5.5-2.5 5.5c-2.3 0-2.5.4-2.6 4.2-.2 11.2-.2 11.3-2.9 11.3-2 0-2.6.6-2.8 2.8l-.3 2.8-14.8-.2c-8.1 0-16.3-.4-18.2-.9-2.4-.5-2.7-.8-1.1-.9 1.2-.1 2.2-.5 2.2-1s-1-1.2-2.2-1.4c-1.3-.2 1.5-.6 6.2-.7l21.2-.9c.9-.1 1.8-1.1 2-2.4.2-1.6 1.1-2.3 3.1-2.5 2.7-.3 2.7-.4 2.7-8.3 0-7.4.1-7.9 2.1-7.9 1.6 0 2-.5 1.6-2-.3-1.1-.1-2.3.4-2.6.5-.3.9-1.8.9-3.5 0-2.2.5-2.9 1.9-2.9 1.3 0 2.1-.8 2.3-2.3.2-1.6 1.1-2.3 3.1-2.5 2.7-.3 3.9-3.1 1.5-3.3-.7-.1 2.3-.7 6.7-1.3 4.4-.7 8.5-1 9.2-.8.6.2 1.3 1.6 1.5 3 .3 2.8.6 2.9 7.1 3.1l3.7.1v5c0 4.8.1 5 2 4 1.5-.8 2-2.1 2-5.1 0-3.2.4-4.1 2.4-5 1.3-.6 2.6-1.9 2.9-2.9.3-1.3 1.9-2 5.6-2.5 4.1-.6 5.1-1.1 5.1-2.6 0-1.2.7-1.9 2-1.9 1.1 0 2.6-1.2 3.4-2.9.9-1.6 2.4-3.1 3.6-3.4 1.2-.3 2-1.3 2-2.6 0-1.9.6-2.1 5.5-2.1 3 0 5.5-.4 5.5-.9 0-.6.9-.9 2-.8 2.6.2 2.6 1.7-.1 1.7-3 0-2.2 4.4.8 4.8 1.5.2 2.5 1.3 2.9 2.8.7 2.8 2 3.2 5.9 1.8 1.6-.6 1.8-.5.8.7-3.2 3.3.7 7 5.8 5.4 1.6-.5 1.9-1.6 1.9-7.6 0-6.4.2-7 2.4-7.8 2.4-1 3.6-4.8 3.6-11.9 0-2.2.6-3.5 1.8-3.9 2.7-1 3.2-2.4 3.2-9.1 0-6-.1-6.2-2.5-6.2-2.5 0-2.5.1-2.5 8.1v8l-2.7-.3c-2.5-.3-2.8-.7-3.1-4.8-.2-2.5-.1-7.3.3-10.8.6-5.7.8-6.2 3.1-6.2 2.2 0 2.4-.4 2.4-5 0-4.9.6-5.7 4.3-5.1.4 0 .7-2.4.7-5.4 0-5.2.1-5.5 2.4-5.5s2.5-.4 2.8-5.3c.3-4.9.5-5.2 3.1-5.5 1.5-.2 2.7-.9 2.6-1.5v-4.5c.1-2.7.5-3.2 2.5-3.2 1.3 0 3.1.3 4 .6 1.4.5 1.4.8.1 2.1-1 .9-1.5 3.4-1.5 6.9 0 5.1-.1 5.4-2.5 5.4-2.3 0-2.5.3-2.5 5 0 3.7.4 5 1.5 5 1.9 0 3.5-3.1 3.5-6.9 0-2 .6-3.2 1.9-3.6 1.9-.6 3.1-3.2 3.1-7.1 0-1.5.8-2.4 2.5-2.8 2.2-.6 2.5-1.2 2.5-5.1 0-3.9.4-4.7 2.5-5.7 1.7-.8 2.5-1.9 2.5-3.7 0-4.1 1.1-7.1 2.6-7.1 1.8 0 3.4-3.2 3.4-6.9 0-2.3.5-3 2.3-3.3 1.9-.3 2.2-1 2.5-5.1.3-4 .7-5 2.8-5.9 2-.9 2.4-1.8 2.4-5.5 0-3.6-.3-4.3-2-4.3-1.9 0-2.4 1-2.1 3.7.1.6-1.1 1.3-2.6 1.5-2.2.2-2.9.9-3.1 3-.3 2.2-.9 2.8-2.8 2.8s-2.4.5-2.4 2.4-.6 2.5-2.7 2.8c-2 .2-2.9.9-3.1 2.5-.3 1.7-1 2.3-2.8 2.3-1.9 0-2.4.5-2.4 2.5s-.5 2.5-2.5 2.5-2.5.5-2.5 2.4c0 2-.6 2.5-3.4 2.8-3.1.3-3.3.2-2.5-1.4.8-1.4.6-1.8-1-1.8-1.1 0-2.2.5-2.4 1-.3.6-.4.5-.3-.2.1-.7 1.2-1.4 2.4-1.6 1.7-.3 2.2-1 2.2-3.3 0-2.6.3-2.9 3-2.9 1.9 0 3-.5 2.9-1.3-.4-2.8.2-3.7 2.6-3.7 2 0 2.5-.5 2.5-2.5s.5-2.5 2.5-2.5c2.1 0 2.5-.5 2.5-3s.4-3 2.5-3c2 0 2.5-.5 2.5-2.5s.5-2.5 2.5-2.5 2.5-.5 2.5-2.4.6-2.5 2.7-2.8c2-.2 2.9-1 3.3-2.8.4-1.9 1.2-2.5 3.3-2.7 2.9-.2 2.8-.4 1.3 6.3a6 6 0 0 0 .2 3.1c1 1.5 5.2-.3 5.2-2.1 0-.9 1.1-1.8 2.4-2.2a3.4 3.4 0 0 0 2.8-2.7c.2-1.4 1.1-2.3 2.6-2.5 2.4-.4 2.8-2.4 1.2-6.6-.6-1.7-.6-2.6 0-2.6s1 .9 1 2 .4 2 .9 2c2.3 0 4.1-1.4 4.1-3 0-1.1 1.2-2.2 3-2.9 2.4-.8 3-1.6 3-3.8 0-1.6-.5-3.4-1.2-4.1-1.2-1.2-10.6-1.5-15.6-.5zm-4.5 17.5c-.3.8-.6.5-.6-.6-.1-1.1.2-1.7.5-1.3.3.3.4 1.2.1 1.9zm4.8.8c.3.5.1 1-.4 1-.6 0-1.1-.5-1.1-1 0-.6.2-1 .4-1 .3 0 .8.4 1.1 1zM363 140c0 2.5-2 2.7-2.1.2 0-1.4-.2-1.4-.9.3-.8 1.9-.9 1.9-.9-.3-.1-1.6.5-2.2 1.9-2.2 1.3 0 2 .7 2 2zm-5 4.5c0 1.3-.4 1.4-2 .5-1.1-.6-2-1.3-2-1.5 0-.3.9-.5 2-.5s2 .7 2 1.5zm-5 3.9c0 1.9-1.6 3.6-3.4 3.5-2.1 0-2.1 0 .2-.9 2.8-1.2 2.9-2.4.1-1.5-1.5.5-1.9.4-1.5-.4.7-1 4.6-1.6 4.6-.7zm11.8 6.1c0 1.4-.4 2.8-.9 3.1-.5.3-.9 1.6-.9 3 0 1.9-.5 2.4-2.5 2.4-1.7 0-2.5.6-2.5 1.7 0 .9-.3 1.4-.6 1.1-.3-.3 0-3.3.7-6.6 1.1-5.4 1.6-6.2 3.8-6.5 1.4-.2 2.7-.5 2.7-.6.1 0 .2 1 .2 2.4zm-18.2 1c.1 1.4-.2 2.5-.7 2.5-.5 0-.9-.6-.9-1.3 0-.8-.4-.7-1 .3-.8 1.2-1 1.1-1-.6 0-4 3.4-4.9 3.6-.9zm-6.1 3.5c-.3.5-1.1 1-1.6 1-.6 0-.7-.5-.4-1a2 2 0 0 1 1.6-1c.6 0 .7.4.4 1zm1 3c-.3.5-1.3 1-2.1 1s-1.4-.5-1.4-1c0-.6.9-1 2.1-1 1.1 0 1.7.4 1.4 1zm-4.7 6.5v4.5h-4.3c-2.8 0-4.5-.5-4.8-1.4-.7-1.9.1-2.6 3-2.6 1.8 0 2.3-.5 2.3-2.5 0-1.8.5-2.5 1.9-2.5 1.6 0 1.9.7 1.9 4.5zM368 165c0 .5-.8.7-1.7.4-1.5-.5-1.5-.3.1 1 1.9 1.6 1.9 1.6-.2 1.6-1.5 0-2.2-.6-2.2-2 0-1.3.7-2 2-2 1.1 0 2 .4 2 1zm7.7 1.2c-.3.8-.6.5-.6-.6-.1-1.1.2-1.7.5-1.3.3.3.4 1.2.1 1.9zm-24 1.4c-.3.3-1.2.4-1.9.1-.8-.3-.5-.6.6-.6 1.1-.1 1.7.2 1.3.5zm6 0c-.3.3-1.2.4-1.9.1-.8-.3-.5-.6.6-.6 1.1-.1 1.7.2 1.3.5zm-10.8 3.6c-.1 1.7-.2 1.9-.6.5-.2-.9-.8-1.7-1.3-1.7s-1.1.8-1.3 1.7c-.4 1.4-.5 1.2-.6-.5-.1-1.6.5-2.2 1.9-2.2s2 .6 1.9 2.2zm15.9.1c.2.9-.1 1.7-.7 1.7s-.8-.7-.5-1.5c.4-.8.1-1.5-.4-1.5-.6 0-1.3.8-1.5 1.7-.3 1.3-.5 1.2-.6-.5-.1-1.7.4-2.3 1.6-2 1 .2 1.9 1.1 2.1 2.1zm-10.8 3.8c0 .5-.5.7-1.1.3-.8-.4-.9 0-.4 1.5.4 1.2.2 2.1-.4 2.1-.6 0-1.1.5-1.1 1.1 0 .8.5.8 1.5-.1.8-.7 1.5-1.9 1.5-2.6 0-.8.5-1.4 1.1-1.4.5 0 .7-.5.4-1-.3-.6-.1-1 .4-1 .6 0 1.1.8 1.2 1.7 0 1.6.1 1.6.8-.1.7-1.9.8-1.9 1.5-.1.8 2.2-1.3 3.9-3 2.4-1.3-1.1-2.4.9-2.4 4.2 0 1-.3 1.8-.7 1.8-2.5-.4-4.3.3-4.3 1.6 0 2.3-1.8 1.8-2.3-.8-.4-1.9-.4-1.9-.6.5-.1 1.8.5 2.8 1.7 3.1 1.3.4 1.1.5-.5.6-1.8.1-2.3-.4-2.3-2.4 0-1.5-.6-2.5-1.5-2.5s-1.2-.6-.9-1.5c.4-.9 0-1.6-.7-1.7-.8 0 .9-.4 3.6-.7 3.4-.4 5-1.1 5.1-2.1l.3-2.8c.1-1.5 3.1-1.6 3.1-.1zm-20.9 4.9c.5 0 .9.9.9 2 0 1.5.7 2 2.4 2 1.9 0 2.5.6 2.8 2.7.2 2 .9 2.9 2.4 3.1 1.6.2 2.4 1.3 2.9 4 .4 2 1.2 4.3 1.8 5.1.9 1.2.9 1.3-.1.7-.8-.5-1.4.2-1.8 2.3-.5 2.4-1.2 3.1-3 3.1-1.7 0-2.4-.6-2.4-1.9 0-1.3-.8-2.1-2.2-2.3-1.6-.2-2.4-1.1-2.6-3-.2-1.9-1-2.8-2.5-3-1.6-.2-2.3-1.1-2.5-3.1-.3-2.1-.9-2.7-2.8-2.7s-2.4-.5-2.4-2.5c0-2.3-.4-2.5-5.2-2.6-2.9-.1-4.3-.4-3-.6 1.5-.3 2.2-1 1.8-1.8-.4-1.1.9-1.5 5.7-1.8 3.4-.1 6.8-.2 7.5 0l2.3.3zM321 192.4c0 1.9.6 2.5 2.8 2.8 2.5.3 2.7.6 2.7 5.3v5l-5.2.3-5.3.3v-3c0-2.6-.4-3.1-2.5-3.1-2.3 0-2.5-.3-2.5-5v-5h5c4.6 0 5 .2 5 2.4zm33.7 5.8c-.3.8-.6.5-.6-.6-.1-1.1.2-1.7.5-1.3.3.3.4 1.2.1 1.9zm-3 8.4c-.3.3-1.2.4-1.9.1-.8-.3-.5-.6.6-.6 1.1-.1 1.7.2 1.3.5zm-34 2.6c-.3.8-.6.5-.6-.6-.1-1.1.2-1.7.5-1.3.3.3.4 1.2.1 1.9zm13 5c-.3.7-.5.2-.5-1.2s.2-1.9.5-1.3c.2.7.2 1.9 0 2.5zm-2.3-.4c.3.5-.1.9-.9.9s-1.5-.4-1.5-.9c0-.4.4-.8.9-.8a2 2 0 0 1 1.5.8zm-29.3 2.3c.1-.3.4.7.8 2.4.6 3 .6 3 8.4 3.3l7.7.3.6-3c.5-2.5 1.2-3 4.3-3.4 4.8-.5 6.1 0 6.1 2.8 0 1.8-.6 2.4-2.7 2.7-2.6.3-2.8.7-3.1 5.5-.3 4.9-.5 5.3-2.8 5.3-1.9 0-2.4.5-2.4 2.5 0 2.4-.3 2.5-5.6 2.5-5.2 0-5.5-.1-5.2-2.3.2-1.7-.2-2.3-2.3-2.5-2.3-.3-2.6 0-2.2 2.2.4 2.1.1 2.5-2.3 2.8-2.6.3-2.9.8-3.2 4.1-.2 2.1.1 5.8.6 8.1l.9 4.3-5.6-.4c-3.1-.2-5.9-.7-6.3-1.1-.3-.4-.4-4-.1-8 .5-6.8.7-7.2 2.9-7.2 2.4 0 2.4-.1 2.4-10.3 0-5.7.2-10.6.5-10.9.3-.3 2.3-.2 4.5.2s4.1.5 4.1.1zm32.1 19.4c.2 4.7 0 8.5-.4 8.5-.5 0-.8-.9-.8-2s-.5-2-1.1-2c-.5 0-.7.4-.4 1 .4.6-.7 1-2.7 1-3.3 0-3.3 0-3.3-5 0-4.8.1-5 2.8-5 2.2 0 2.7-.4 2.7-2.5 0-1.5.6-2.5 1.4-2.5 1.1 0 1.5 2 1.8 8.5zm9.8-8.1c0 .2-.7.6-1.5 1-.8.3-1.5.1-1.5-.4 0-.6.7-1 1.5-1s1.5.2 1.5.4zm-57.3 7.3c-.3 1-.5.4-.5-1.2 0-1.7.2-2.4.5-1.8.2.7.2 2.1 0 3zm58.5 2.2c.2 2.2 0 3.7-.4 3.5-.8-.5-1.1-7.4-.4-7.4.2 0 .6 1.8.8 3.9zM304 239c0 .5-.7.7-1.5.4-.8-.4-1.5-.8-1.5-1 0-.2.7-.4 1.5-.4s1.5.4 1.5 1zm34.7 3.2c-.3.8-.6.5-.6-.6-.1-1.1.2-1.7.5-1.3.3.3.4 1.2.1 1.9zm-27.9 5.5.3 5.1-5.1.4c-2.9.1-5.4.1-5.6-.1-.2-.2-.4-2.9-.4-5.8v-5.4l5.3.3 5.2.3.3 5.2zm28.9-.5c-.3.8-.6.5-.6-.6-.1-1.1.2-1.7.5-1.3.3.3.4 1.2.1 1.9zm2 8c-.2 1.3-.4.3-.4-2.2s.2-3.5.4-2.3a17 17 0 0 1 0 4.5zm-59-3.6c-.3.3-1.2.4-1.9.1-.8-.3-.5-.6.6-.6 1.1-.1 1.7.2 1.3.5zm-4 8c-.3.3-1.2.4-1.9.1-.8-.3-.5-.6.6-.6 1.1-.1 1.7.2 1.3.5zm-11 29c-.3.3-1.2.4-1.9.1-.8-.3-.5-.6.6-.6 1.1-.1 1.7.2 1.3.5zm-58 35.2c.1 1.1-.6 1.8-1.8 1.9-1.3.1-1.9-.5-1.9-1.8 0-2.5 3.5-2.6 3.7-.1zM150 380.4c0 .3-.4.8-1 1.1-.5.3-1 .1-1-.4 0-.6.5-1.1 1-1.1.6 0 1 .2 1 .4zm-16.3 16.3c-.4.3-.2 1.2.5 2 .8 1.1.7 1.2-.6.7-.9-.3-1.6-.9-1.6-1.3 0-.9 1.1-2.1 1.8-2.1.3 0 .2.3-.1.7zm-19.9 21c-1 .2-1.8.9-1.8 1.5s-.3.9-.6.5c-1-1 .6-2.7 2.4-2.6 1.5.1 1.5.2 0 .6zm11.9 7c-.3 1-.5.2-.5-1.7s.2-2.7.5-1.8c.2 1 .2 2.6 0 3.5zm-2 .9c-.3.3-1.2.4-1.9.1-.8-.3-.5-.6.6-.6 1.1-.1 1.7.2 1.3.5z" />
    <path
        d="M334.3 166.5c0 .8.4 1.2.9.9.5-.3.6-1 .3-1.5-.9-1.3-1.2-1.1-1.2.6zM334 170.5c0 .8.4 1.5 1 1.5.5 0 .7-.7.4-1.5-.4-.8-.8-1.5-1-1.5-.2 0-.4.7-.4 1.5zM344.8 181.7c.6.2 1.8.2 2.5 0 .6-.3.1-.5-1.3-.5-1.4 0-1.9.2-1.2.5zM306 229c0 1.3.7 2 2 2s2-.7 2-2-.7-2-2-2-2 .7-2 2zM325.5 234.2c-1.1 2.9-.9 6.1.3 6.5.8.3 1.2-.8 1.2-3.6 0-4.1-.6-5.3-1.5-2.9zM364 197.5c0 .8.6 1.5 1.3 1.5.9 0 .9.3-.1.9-.8.5-1.2 1.7-1 2.7.3 1.6.7 1.3 2.1-1.3 2.2-4.2 2.1-5.3-.3-5.3-1.1 0-2 .7-2 1.5zM358 210.5c0 3.7.3 4.5 1.9 4.5 2.1 0 3.1-1.9 3.1-6.1 0-2.4-.4-2.9-2.5-2.9-2.3 0-2.5.4-2.5 4.5zM264 270.9c0 2.2 3.1 3.2 7.4 2.4 2.6-.5 2.7-.7 1.1-1.4-1.8-.7-1.8-.8-.2-.8 3.9-.2.3-2.1-3.9-2.1-3.6 0-4.4.3-4.4 1.9zM279.7 279.7c-1 1-.8 4.3.2 4.3 2.3 0 4.1-1.4 4.1-3.1 0-1.9-2.9-2.7-4.3-1.2z" />
</svg>