<?xml version="1.0" standalone="no"?>
<!DOCTYPE svg PUBLIC "-//W3C//DTD SVG 20010904//EN"
 "http://www.w3.org/TR/2001/REC-SVG-20010904/DTD/svg10.dtd">
<svg version="1.0" xmlns="http://www.w3.org/2000/svg"
 width="532.000000pt" height="469.000000pt" viewBox="0 0 532.000000 469.000000"
 preserveAspectRatio="xMidYMid meet">

<g transform="translate(0.000000,469.000000) scale(0.100000,-0.100000)"
fill="#000000" stroke="none">
<path d="M3210 3936 c0 -14 13 -36 30 -53 17 -15 30 -35 30 -43 0 -8 7 -24 15
-34 8 -11 15 -30 15 -42 0 -12 7 -35 15 -50 10 -21 15 -61 15 -137 l0 -107
-45 -47 c-25 -26 -44 -54 -43 -62 2 -11 22 -20 58 -26 45 -9 56 -15 58 -33 2
-13 -3 -25 -12 -28 -9 -3 -16 -12 -16 -19 0 -16 -32 -25 -93 -25 -33 0 -49 -5
-53 -15 -8 -20 27 -78 54 -90 31 -14 37 -40 15 -69 -26 -35 -74 -49 -138 -41
-54 7 -55 7 -55 -18 0 -24 7 -33 88 -105 24 -21 33 -36 30 -53 -3 -22 -8 -24
-67 -27 -54 -3 -73 1 -110 22 -43 23 -69 30 -98 27 -19 -2 -16 -48 5 -69 37
-39 52 -83 52 -148 0 -51 -4 -68 -20 -84 -11 -11 -24 -20 -30 -20 -5 0 -10 -7
-10 -15 0 -20 -44 -20 -60 0 -7 8 -20 15 -30 15 -10 0 -23 7 -30 15 -17 20
-69 19 -77 -1 -3 -9 -1 -25 5 -35 7 -10 12 -27 12 -38 0 -10 7 -24 15 -31 8
-7 15 -21 15 -32 0 -10 7 -21 15 -24 24 -9 20 -79 -6 -105 l-21 -21 -60 62
c-43 44 -66 60 -81 58 -21 -3 -22 -9 -25 -102 -2 -87 -5 -100 -25 -117 -12
-10 -30 -18 -40 -19 -10 0 -28 -6 -40 -14 -20 -13 -27 -12 -72 10 -31 16 -63
24 -85 22 -52 -4 -51 -31 4 -84 41 -39 46 -48 46 -86 -1 -35 -8 -50 -39 -85
-36 -40 -42 -43 -90 -43 -48 0 -51 -2 -51 -25 0 -16 11 -32 30 -47 29 -21 30
-24 30 -102 0 -72 -3 -83 -24 -103 -19 -19 -35 -23 -85 -23 -63 0 -92 17 -107
63 -10 32 -37 57 -61 57 -22 0 -23 -3 -23 -84 0 -47 -4 -87 -8 -90 -4 -3 -22
8 -39 25 -18 16 -39 29 -47 29 -8 0 -21 6 -28 13 -7 8 -37 16 -66 20 -46 5
-59 12 -92 47 -37 39 -79 53 -81 28 -4 -40 -6 -156 -2 -170 6 -24 33 -31 54
-12 17 15 23 12 98 -62 44 -43 88 -94 98 -113 21 -41 80 -130 101 -150 23 -24
11 -234 -16 -284 -27 -51 -132 -157 -154 -157 -10 0 -37 -19 -60 -43 -87 -87
-92 -97 -96 -169 -4 -64 -5 -67 -31 -70 -23 -3 -26 -8 -26 -38 l0 -35 84 -3
83 -3 49 49 c48 48 49 50 49 110 0 35 5 66 13 74 7 7 17 23 22 35 14 30 134
153 149 153 7 0 38 14 69 30 31 17 65 30 74 30 10 0 27 7 37 15 22 17 126 21
126 5 0 -5 16 -12 35 -16 26 -5 41 -2 54 10 19 18 91 22 91 5 0 -5 14 -15 30
-20 17 -6 30 -15 30 -20 0 -5 7 -9 16 -9 9 0 28 -6 42 -14 15 -8 47 -22 72
-32 40 -17 59 -32 100 -81 5 -7 10 -18 10 -26 0 -20 33 -47 58 -47 27 0 34 25
30 115 l-3 69 -35 9 c-42 10 -76 40 -84 73 -4 13 -11 24 -16 24 -6 0 -10 11
-10 24 0 13 -7 29 -15 36 -32 27 -6 80 46 93 36 9 120 97 117 121 -3 18 -10
21 -63 22 -102 1 -115 3 -115 18 0 8 -7 16 -15 20 -8 3 -15 12 -15 19 0 20 43
67 61 67 21 0 130 117 157 168 14 28 22 60 22 95 0 43 6 62 36 107 73 113 132
150 236 150 l60 0 -3 38 c-1 20 -1 45 0 54 2 25 65 51 141 57 59 5 65 8 68 30
2 13 -1 28 -7 34 -19 19 -12 40 30 83 40 41 50 71 35 105 -4 10 7 31 34 61 22
25 40 50 40 56 0 5 7 15 15 22 8 7 15 23 15 35 0 13 7 25 15 29 8 3 15 15 15
26 0 23 33 60 55 60 37 0 110 109 133 200 16 64 23 348 12 455 -19 176 -38
236 -142 440 -10 19 -67 84 -128 144 -102 102 -170 151 -211 151 -9 0 -22 7
-29 15 -8 10 -30 15 -61 15 -45 0 -49 -2 -49 -24z m300 -165 c0 -5 -7 -11 -15
-15 -9 -3 -15 0 -15 9 0 8 7 15 15 15 8 0 15 -4 15 -9z m26 -36 c4 -8 12 -15
20 -15 8 0 14 -7 14 -15 0 -8 7 -15 15 -15 8 0 15 -6 15 -14 0 -8 7 -16 15
-20 8 -3 15 -17 15 -31 0 -14 6 -25 13 -25 7 0 14 -12 15 -27 1 -15 7 -30 14
-34 6 -4 13 -18 15 -30 2 -13 9 -27 16 -31 8 -5 13 -46 15 -123 3 -100 2 -115
-12 -115 -13 0 -16 12 -16 60 0 47 -3 60 -15 60 -11 0 -15 12 -15 45 0 31 -4
45 -14 45 -8 0 -15 16 -19 41 -3 23 -10 45 -15 48 -6 3 -14 19 -17 34 -4 15
-11 27 -15 27 -5 0 -11 14 -15 30 -4 17 -13 30 -22 30 -11 0 -14 6 -9 25 5 18
2 27 -9 31 -17 7 -21 34 -5 34 6 0 13 -7 16 -15z m-186 -336 c0 -5 -5 -7 -11
-4 -6 4 -13 -2 -16 -14 -3 -14 -13 -21 -29 -21 -13 0 -24 5 -24 10 0 6 7 10
15 10 8 0 15 7 15 15 0 9 9 15 25 15 14 0 25 -5 25 -11z m-90 -209 c0 -5 6
-10 14 -10 19 0 31 -19 20 -30 -13 -13 -64 0 -64 16 0 8 -4 14 -10 14 -5 0
-10 5 -10 10 0 6 11 10 25 10 14 0 25 -4 25 -10z m364 -204 c-1 -24 -8 -42
-17 -48 -13 -7 -15 -21 -12 -68 4 -65 -7 -76 -38 -40 -23 28 -25 170 -2 170 8
0 15 6 15 14 0 10 9 14 28 12 25 -2 27 -5 26 -40z m183 -65 c1 -54 -2 -74 -13
-78 -8 -3 -14 -15 -14 -28 0 -13 -6 -25 -14 -28 -8 -3 -16 -18 -18 -33 -2 -15
-9 -29 -15 -32 -10 -3 -13 17 -13 78 0 49 4 79 9 75 6 -3 13 10 17 30 3 19 10
32 15 30 4 -3 11 11 15 30 11 60 29 35 31 -44z m-672 59 c-3 -5 3 -10 14 -10
14 0 21 -6 21 -20 0 -15 -7 -20 -26 -20 -17 0 -28 6 -31 20 -3 11 -9 20 -14
20 -5 0 -9 5 -9 10 0 6 12 10 26 10 14 0 23 -4 19 -10z m125 -70 c0 -16 -4
-30 -10 -30 -11 0 -14 43 -3 53 11 12 13 8 13 -23z m-300 -80 c0 -5 14 -10 30
-10 28 0 30 -3 28 -30 -1 -17 -8 -30 -16 -30 -7 0 -11 4 -8 9 3 5 -8 11 -24
15 -18 3 -30 12 -30 21 0 8 -7 15 -15 15 -8 0 -15 5 -15 10 0 6 11 10 25 10
14 0 25 -4 25 -10z m90 -120 c0 -5 -7 -10 -15 -10 -8 0 -15 5 -15 10 0 6 7 10
15 10 8 0 15 -4 15 -10z m-30 -44 c0 -14 -4 -28 -10 -31 -6 -4 -10 7 -10 24 0
17 5 31 10 31 6 0 10 -11 10 -24z m-240 -151 c7 -14 17 -25 22 -25 11 0 10
-41 -1 -59 -7 -10 -11 -5 -16 18 -3 17 -13 31 -21 31 -8 0 -14 9 -14 20 0 12
-7 20 -17 20 -15 0 -16 2 -3 10 24 15 36 12 50 -15z m120 -95 c0 -20 -5 -30
-15 -30 -8 0 -15 -7 -15 -16 0 -9 -6 -14 -12 -11 -14 4 -11 50 3 55 5 2 9 10
9 18 0 8 7 14 15 14 10 0 15 -10 15 -30z m-253 -102 c40 -38 41 -48 8 -48 -16
0 -25 6 -25 15 0 8 -7 15 -15 15 -9 0 -15 9 -15 25 0 33 7 32 47 -7z m43 -128
c0 -5 -13 -10 -30 -10 -16 0 -30 5 -30 10 0 6 14 10 30 10 17 0 30 -4 30 -10z
m-291 -79 c11 -7 9 -13 -8 -30 -22 -22 -37 -28 -26 -10 4 6 -2 13 -14 16 -31
8 -26 33 7 33 15 0 33 -4 41 -9z m71 -66 c0 -9 -9 -15 -25 -15 -29 0 -34 16
-7 23 30 8 32 7 32 -8z m-180 -215 c0 -5 -11 -10 -25 -10 -14 0 -25 5 -25 10
0 6 11 10 25 10 14 0 25 -4 25 -10z m670 -31 c0 -5 -6 -9 -14 -9 -8 0 -16 -10
-19 -22 -3 -19 -5 -20 -11 -6 -5 10 -1 24 10 37 17 19 34 20 34 0z m-580 1 c0
-5 -7 -10 -15 -10 -8 0 -15 -7 -15 -15 0 -8 -4 -15 -10 -15 -5 0 -10 11 -10
25 0 20 5 25 25 25 14 0 25 -4 25 -10z m520 -80 c0 -30 -13 -40 -25 -20 -8 13
4 50 16 50 5 0 9 -13 9 -30z m-30 -94 c0 -55 -4 -69 -24 -91 -13 -14 -27 -22
-30 -17 -7 12 4 52 15 52 5 0 9 20 9 44 0 49 7 76 21 76 5 0 9 -29 9 -64z
m-332 -20 c-1 -14 -10 -27 -20 -29 -10 -3 -18 -12 -18 -21 0 -9 -4 -16 -10
-16 -5 0 -10 -7 -10 -15 0 -8 -9 -15 -20 -15 -19 0 -20 4 -15 38 9 54 14 64
25 57 5 -3 10 1 10 9 0 11 9 16 30 16 25 0 29 -4 28 -24z m-508 -40 c0 -2 -7
-9 -15 -16 -12 -10 -15 -10 -15 4 0 9 7 16 15 16 8 0 15 -2 15 -4z m24 -41
c-4 -8 -10 -15 -15 -15 -5 0 -9 7 -9 15 0 8 7 15 15 15 9 0 12 -6 9 -15z m756
-31 c0 -17 -22 -14 -28 4 -2 7 3 12 12 12 9 0 16 -7 16 -16z m-879 -87 c-1
-12 -15 -9 -19 4 -3 6 1 10 8 8 6 -3 11 -8 11 -12z m494 -13 c14 -15 25 -35
25 -45 0 -11 7 -19 15 -19 11 0 15 -8 12 -27 -5 -39 -27 -42 -27 -4 0 21 -5
31 -15 31 -8 0 -15 7 -15 15 0 8 -7 15 -15 15 -8 0 -15 7 -15 15 0 9 -7 18
-15 21 -22 9 -18 24 5 24 12 0 32 -12 45 -26z m-457 -16 c-6 -18 -28 -21 -28
-4 0 9 7 16 16 16 9 0 14 -5 12 -12z m172 -1 c0 -7 -11 -14 -25 -15 -16 -1
-25 3 -25 13 0 9 10 15 25 15 14 0 25 -6 25 -13z m-148 -32 c0 -5 -5 -11 -11
-13 -6 -2 -11 4 -11 13 0 9 5 15 11 13 6 -2 11 -8 11 -13z m268 -9 c0 -13 -7
-26 -15 -30 -8 -3 -15 -12 -15 -21 0 -8 -7 -15 -15 -15 -11 0 -15 -12 -15 -50
l0 -50 35 0 c23 0 35 5 35 14 0 8 7 16 15 20 8 3 15 12 15 21 0 8 7 15 15 15
9 0 18 7 21 15 4 8 10 15 16 15 5 0 6 -6 2 -12 -5 -9 -2 -9 9 1 15 12 17 11
17 -3 0 -9 7 -16 15 -16 9 0 15 -9 15 -24 0 -13 3 -32 6 -41 5 -11 0 -18 -15
-22 -11 -3 -21 -12 -21 -20 0 -8 -5 -11 -10 -8 -6 3 -13 -1 -16 -9 -8 -20 -80
-22 -87 -2 -3 8 -16 12 -31 11 -20 -3 -26 1 -26 16 0 12 -5 16 -15 13 -9 -4
-15 0 -15 10 0 9 -6 16 -14 16 -9 0 -16 12 -18 33 -2 19 -8 31 -15 29 -8 -1
-13 9 -13 28 0 20 5 30 15 30 8 0 15 7 15 15 0 8 7 15 15 15 8 0 15 7 15 15 0
11 11 15 40 15 36 0 40 -3 40 -24z m16 -88 c-9 -5 -14 -13 -11 -18 3 -4 -2
-10 -10 -14 -11 -4 -15 2 -15 24 0 19 5 30 14 30 8 0 17 8 22 18 6 15 8 14 12
-7 2 -15 -2 -28 -12 -33z m-166 -68 c0 -16 -4 -30 -10 -30 -5 0 -10 14 -10 30
0 17 5 30 10 30 6 0 10 -13 10 -30z m426 -35 c3 -19 11 -33 16 -32 6 1 13 -4
15 -11 4 -10 -3 -13 -23 -10 -26 3 -29 7 -32 46 -4 51 14 57 24 7z m-375 -25
c10 0 19 -7 19 -15 0 -10 10 -15 30 -15 20 0 30 -5 30 -15 0 -12 15 -15 68
-17 37 -1 82 -2 101 -2 19 -1 36 -6 38 -12 2 -7 -30 -13 -94 -17 -106 -7 -139
-3 -147 19 -3 8 -12 14 -21 14 -8 0 -15 7 -15 15 0 8 -7 15 -15 15 -8 0 -15 6
-15 14 0 8 -5 16 -12 18 -7 3 -8 9 -3 19 8 12 10 11 13 -3 2 -10 12 -18 23
-18z m310 -10 c6 0 7 -4 4 -10 -7 -12 -55 -13 -55 -2 0 15 13 23 28 17 7 -3
18 -5 23 -5z m249 -5 c0 -8 -7 -15 -15 -15 -8 0 -15 -7 -15 -15 0 -11 -12 -15
-45 -15 -33 0 -45 4 -45 15 0 10 10 15 30 15 20 0 30 5 30 15 0 10 10 15 30
15 20 0 30 -5 30 -15z m-90 -150 c0 -8 7 -15 15 -15 8 0 15 -6 15 -14 0 -8 7
-17 16 -20 8 -3 13 -10 9 -15 -3 -5 4 -12 15 -16 24 -8 28 -55 5 -55 -8 0 -15
5 -15 11 0 6 -7 17 -15 25 -8 9 -15 24 -15 35 0 10 -7 19 -15 19 -8 0 -15 7
-15 15 0 8 -7 15 -15 15 -8 0 -15 7 -15 15 0 8 7 15 15 15 8 0 15 -7 15 -15z
m210 -220 c0 -25 -3 -45 -7 -45 -16 1 -53 49 -53 69 0 17 6 21 30 21 29 0 30
-2 30 -45z m-1094 -195 c9 0 13 -4 10 -9 -3 -5 1 -11 9 -15 20 -7 19 -52 0
-60 -8 -3 -14 -11 -13 -18 2 -8 -10 -14 -29 -16 l-33 -3 0 59 c0 62 6 76 28
67 7 -3 20 -5 28 -5z"/>
</g>
</svg>
